<?xml version="1.0" standalone="yes"?>
<svg width="1920" height="1080" xmlns="http://www.w3.org/2000/svg" version="1.1" >
	
	<polygon points="0,0 0,99 2,0" fill="rgb(56, 56, 56)" stroke="rgb(56, 56, 56)" stroke-width="0" stroke-linejoin="miter"/>
	<polygon points="2,0 0,99 99,0" fill="rgb(69, 69, 69)" stroke="rgb(69, 69, 69)" stroke-width="0" stroke-linejoin="miter"/>
	<polygon points="0,997 0,1080 99,1080" fill="rgb(65, 65, 65)" stroke="rgb(65, 65, 65)" stroke-width="0" stroke-linejoin="miter"/>
	<polygon points="0,897 0,997 99,1080" fill="rgb(57, 57, 57)" stroke="rgb(57, 57, 57)" stroke-width="0" stroke-linejoin="miter"/>
	<polygon points="0,99 0,199 199,0" fill="rgb(16, 16, 16)" stroke="rgb(16, 16, 16)" stroke-width="0" stroke-linejoin="miter"/>
	<polygon points="99,0 0,99 199,0" fill="rgb(74, 74, 74)" stroke="rgb(74, 74, 74)" stroke-width="0" stroke-linejoin="miter"/>
	<polygon points="0,897 99,1080 199,1080" fill="rgb(66, 66, 66)" stroke="rgb(66, 66, 66)" stroke-width="0" stroke-linejoin="miter"/>
	<polygon points="0,798 0,897 310,872" fill="rgb(19, 19, 19)" stroke="rgb(19, 19, 19)" stroke-width="0" stroke-linejoin="miter"/>
	<polygon points="0,897 199,1080 310,872" fill="rgb(65, 65, 65)" stroke="rgb(65, 65, 65)" stroke-width="0" stroke-linejoin="miter"/>
	<polygon points="0,698 0,798 310,872" fill="rgb(24, 24, 24)" stroke="rgb(24, 24, 24)" stroke-width="0" stroke-linejoin="miter"/>
	<polygon points="199,1080 299,1080 334,892" fill="rgb(27, 27, 27)" stroke="rgb(27, 27, 27)" stroke-width="0" stroke-linejoin="miter"/>
	<polygon points="310,872 199,1080 334,892" fill="rgb(45, 45, 45)" stroke="rgb(45, 45, 45)" stroke-width="0" stroke-linejoin="miter"/>
	<polygon points="334,892 299,1080 399,1080" fill="rgb(23, 23, 23)" stroke="rgb(23, 23, 23)" stroke-width="0" stroke-linejoin="miter"/>
	<polygon points="360,22 398,52 399,0" fill="rgb(107, 107, 107)" stroke="rgb(107, 107, 107)" stroke-width="0" stroke-linejoin="miter"/>
	<polygon points="299,0 360,22 399,0" fill="rgb(66, 66, 66)" stroke="rgb(66, 66, 66)" stroke-width="0" stroke-linejoin="miter"/>
	<polygon points="299,0 199,0 398,52" fill="rgb(94, 94, 94)" stroke="rgb(94, 94, 94)" stroke-width="0" stroke-linejoin="miter"/>
	<polygon points="360,22 299,0 398,52" fill="rgb(27, 27, 27)" stroke="rgb(27, 27, 27)" stroke-width="0" stroke-linejoin="miter"/>
	<polygon points="0,598 0,698 310,872" fill="rgb(11, 11, 11)" stroke="rgb(11, 11, 11)" stroke-width="0" stroke-linejoin="miter"/>
	<polygon points="0,399 0,498 484,452" fill="rgb(30, 30, 30)" stroke="rgb(30, 30, 30)" stroke-width="0" stroke-linejoin="miter"/>
	<polygon points="0,199 0,299 398,52" fill="rgb(25, 25, 25)" stroke="rgb(25, 25, 25)" stroke-width="0" stroke-linejoin="miter"/>
	<polygon points="199,0 0,199 398,52" fill="rgb(35, 35, 35)" stroke="rgb(35, 35, 35)" stroke-width="0" stroke-linejoin="miter"/>
	<polygon points="399,0 398,52 498,0" fill="rgb(83, 83, 83)" stroke="rgb(83, 83, 83)" stroke-width="0" stroke-linejoin="miter"/>
	<polygon points="0,299 0,399 484,452" fill="rgb(70, 70, 70)" stroke="rgb(70, 70, 70)" stroke-width="0" stroke-linejoin="miter"/>
	<polygon points="398,52 0,299 484,452" fill="rgb(12, 12, 12)" stroke="rgb(12, 12, 12)" stroke-width="0" stroke-linejoin="miter"/>
	<polygon points="0,498 0,598 484,452" fill="rgb(32, 32, 32)" stroke="rgb(32, 32, 32)" stroke-width="0" stroke-linejoin="miter"/>
	<polygon points="0,598 310,872 484,452" fill="rgb(14, 14, 14)" stroke="rgb(14, 14, 14)" stroke-width="0" stroke-linejoin="miter"/>
	<polygon points="334,892 399,1080 498,1080" fill="rgb(132, 132, 132)" stroke="rgb(132, 132, 132)" stroke-width="0" stroke-linejoin="miter"/>
	<polygon points="398,52 484,452 582,288" fill="rgb(75, 75, 75)" stroke="rgb(75, 75, 75)" stroke-width="0" stroke-linejoin="miter"/>
	<polygon points="310,872 334,892 580,706" fill="rgb(73, 73, 73)" stroke="rgb(73, 73, 73)" stroke-width="0" stroke-linejoin="miter"/>
	<polygon points="484,452 310,872 580,706" fill="rgb(38, 38, 38)" stroke="rgb(38, 38, 38)" stroke-width="0" stroke-linejoin="miter"/>
	<polygon points="498,0 398,52 590,96" fill="rgb(132, 132, 132)" stroke="rgb(132, 132, 132)" stroke-width="0" stroke-linejoin="miter"/>
	<polygon points="498,0 590,96 598,0" fill="rgb(64, 64, 64)" stroke="rgb(64, 64, 64)" stroke-width="0" stroke-linejoin="miter"/>
	<polygon points="582,288 484,452 620,394" fill="rgb(100, 100, 100)" stroke="rgb(100, 100, 100)" stroke-width="0" stroke-linejoin="miter"/>
	<polygon points="398,52 582,288 590,96" fill="rgb(104, 104, 104)" stroke="rgb(104, 104, 104)" stroke-width="0" stroke-linejoin="miter"/>
	<polygon points="590,96 582,288 650,122" fill="rgb(110, 110, 110)" stroke="rgb(110, 110, 110)" stroke-width="0" stroke-linejoin="miter"/>
	<polygon points="620,394 484,452 688,514" fill="rgb(67, 67, 67)" stroke="rgb(67, 67, 67)" stroke-width="0" stroke-linejoin="miter"/>
	<polygon points="484,452 580,706 688,514" fill="rgb(56, 56, 56)" stroke="rgb(56, 56, 56)" stroke-width="0" stroke-linejoin="miter"/>
	<polygon points="598,1080 698,1080 712,1022" fill="rgb(131, 131, 131)" stroke="rgb(131, 131, 131)" stroke-width="0" stroke-linejoin="miter"/>
	<polygon points="598,0 650,122 698,0" fill="rgb(73, 73, 73)" stroke="rgb(73, 73, 73)" stroke-width="0" stroke-linejoin="miter"/>
	<polygon points="598,0 590,96 650,122" fill="rgb(133, 133, 133)" stroke="rgb(133, 133, 133)" stroke-width="0" stroke-linejoin="miter"/>
	<polygon points="334,892 498,1080 580,706" fill="rgb(113, 113, 113)" stroke="rgb(113, 113, 113)" stroke-width="0" stroke-linejoin="miter"/>
	<polygon points="598,1080 712,1022 724,946" fill="rgb(48, 48, 48)" stroke="rgb(48, 48, 48)" stroke-width="0" stroke-linejoin="miter"/>
	<polygon points="580,706 498,1080 724,946" fill="rgb(108, 108, 108)" stroke="rgb(108, 108, 108)" stroke-width="0" stroke-linejoin="miter"/>
	<polygon points="498,1080 598,1080 724,946" fill="rgb(24, 24, 24)" stroke="rgb(24, 24, 24)" stroke-width="0" stroke-linejoin="miter"/>
	<polygon points="688,514 580,706 742,590" fill="rgb(92, 92, 92)" stroke="rgb(92, 92, 92)" stroke-width="0" stroke-linejoin="miter"/>
	<polygon points="582,288 620,394 732,264" fill="rgb(69, 69, 69)" stroke="rgb(69, 69, 69)" stroke-width="0" stroke-linejoin="miter"/>
	<polygon points="650,122 582,288 732,264" fill="rgb(124, 124, 124)" stroke="rgb(124, 124, 124)" stroke-width="0" stroke-linejoin="miter"/>
	<polygon points="712,1022 698,1080 798,1080" fill="rgb(43, 43, 43)" stroke="rgb(43, 43, 43)" stroke-width="0" stroke-linejoin="miter"/>
	<polygon points="698,0 650,122 838,44" fill="rgb(55, 55, 55)" stroke="rgb(55, 55, 55)" stroke-width="0" stroke-linejoin="miter"/>
	<polygon points="798,0 698,0 838,44" fill="rgb(67, 67, 67)" stroke="rgb(67, 67, 67)" stroke-width="0" stroke-linejoin="miter"/>
	<polygon points="742,590 580,706 800,622" fill="rgb(111, 111, 111)" stroke="rgb(111, 111, 111)" stroke-width="0" stroke-linejoin="miter"/>
	<polygon points="724,946 712,1022 850,1032" fill="rgb(85, 85, 85)" stroke="rgb(85, 85, 85)" stroke-width="0" stroke-linejoin="miter"/>
	<polygon points="712,1022 798,1080 850,1032" fill="rgb(67, 67, 67)" stroke="rgb(67, 67, 67)" stroke-width="0" stroke-linejoin="miter"/>
	<polygon points="650,122 732,264 838,44" fill="rgb(92, 92, 92)" stroke="rgb(92, 92, 92)" stroke-width="0" stroke-linejoin="miter"/>
	<polygon points="620,394 688,514 732,264" fill="rgb(129, 129, 129)" stroke="rgb(129, 129, 129)" stroke-width="0" stroke-linejoin="miter"/>
	<polygon points="850,1032 798,1080 897,1080" fill="rgb(42, 42, 42)" stroke="rgb(42, 42, 42)" stroke-width="0" stroke-linejoin="miter"/>
	<polygon points="798,0 838,44 897,0" fill="rgb(81, 81, 81)" stroke="rgb(81, 81, 81)" stroke-width="0" stroke-linejoin="miter"/>
	<polygon points="580,706 724,946 800,622" fill="rgb(160, 160, 160)" stroke="rgb(160, 160, 160)" stroke-width="0" stroke-linejoin="miter"/>
	<polygon points="742,590 800,622 978,542" fill="rgb(51, 51, 51)" stroke="rgb(51, 51, 51)" stroke-width="0" stroke-linejoin="miter"/>
	<polygon points="688,514 742,590 978,542" fill="rgb(77, 77, 77)" stroke="rgb(77, 77, 77)" stroke-width="0" stroke-linejoin="miter"/>
	<polygon points="800,622 724,946 1014,812" fill="rgb(100, 100, 100)" stroke="rgb(100, 100, 100)" stroke-width="0" stroke-linejoin="miter"/>
	<polygon points="724,946 850,1032 1014,812" fill="rgb(53, 53, 53)" stroke="rgb(53, 53, 53)" stroke-width="0" stroke-linejoin="miter"/>
	<polygon points="850,1032 897,1080 997,1080" fill="rgb(73, 73, 73)" stroke="rgb(73, 73, 73)" stroke-width="0" stroke-linejoin="miter"/>
	<polygon points="732,264 688,514 978,542" fill="rgb(69, 69, 69)" stroke="rgb(69, 69, 69)" stroke-width="0" stroke-linejoin="miter"/>
	<polygon points="850,1032 997,1080 1058,886" fill="rgb(95, 95, 95)" stroke="rgb(95, 95, 95)" stroke-width="0" stroke-linejoin="miter"/>
	<polygon points="1014,812 850,1032 1058,886" fill="rgb(149, 149, 149)" stroke="rgb(149, 149, 149)" stroke-width="0" stroke-linejoin="miter"/>
	<polygon points="978,542 800,622 1014,812" fill="rgb(86, 86, 86)" stroke="rgb(86, 86, 86)" stroke-width="0" stroke-linejoin="miter"/>
	<polygon points="897,0 838,44 997,0" fill="rgb(51, 51, 51)" stroke="rgb(51, 51, 51)" stroke-width="0" stroke-linejoin="miter"/>
	<polygon points="1058,886 997,1080 1097,1080" fill="rgb(48, 48, 48)" stroke="rgb(48, 48, 48)" stroke-width="0" stroke-linejoin="miter"/>
	<polygon points="978,542 1092,554 1096,426" fill="rgb(109, 109, 109)" stroke="rgb(109, 109, 109)" stroke-width="0" stroke-linejoin="miter"/>
	<polygon points="732,264 978,542 1096,426" fill="rgb(95, 95, 95)" stroke="rgb(95, 95, 95)" stroke-width="0" stroke-linejoin="miter"/>
	<polygon points="978,542 1014,812 1092,554" fill="rgb(90, 90, 90)" stroke="rgb(90, 90, 90)" stroke-width="0" stroke-linejoin="miter"/>
	<polygon points="1058,886 1097,1080 1176,924" fill="rgb(45, 45, 45)" stroke="rgb(45, 45, 45)" stroke-width="0" stroke-linejoin="miter"/>
	<polygon points="1097,0 997,0 1174,92" fill="rgb(179, 179, 179)" stroke="rgb(179, 179, 179)" stroke-width="0" stroke-linejoin="miter"/>
	<polygon points="838,44 732,264 1096,426" fill="rgb(135, 135, 135)" stroke="rgb(135, 135, 135)" stroke-width="0" stroke-linejoin="miter"/>
	<polygon points="1097,0 1174,92 1197,0" fill="rgb(22, 22, 22)" stroke="rgb(22, 22, 22)" stroke-width="0" stroke-linejoin="miter"/>
	<polygon points="1194,1032 1097,1080 1197,1080" fill="rgb(39, 39, 39)" stroke="rgb(39, 39, 39)" stroke-width="0" stroke-linejoin="miter"/>
	<polygon points="1096,426 1092,554 1194,540" fill="rgb(95, 95, 95)" stroke="rgb(95, 95, 95)" stroke-width="0" stroke-linejoin="miter"/>
	<polygon points="1176,924 1097,1080 1194,1032" fill="rgb(69, 69, 69)" stroke="rgb(69, 69, 69)" stroke-width="0" stroke-linejoin="miter"/>
	<polygon points="997,0 1096,426 1174,92" fill="rgb(119, 119, 119)" stroke="rgb(119, 119, 119)" stroke-width="0" stroke-linejoin="miter"/>
	<polygon points="997,0 838,44 1096,426" fill="rgb(82, 82, 82)" stroke="rgb(82, 82, 82)" stroke-width="0" stroke-linejoin="miter"/>
	<polygon points="1174,92 1096,426 1246,306" fill="rgb(71, 71, 71)" stroke="rgb(71, 71, 71)" stroke-width="0" stroke-linejoin="miter"/>
	<polygon points="1194,1032 1197,1080 1296,1080" fill="rgb(84, 84, 84)" stroke="rgb(84, 84, 84)" stroke-width="0" stroke-linejoin="miter"/>
	<polygon points="1197,0 1174,92 1296,0" fill="rgb(38, 38, 38)" stroke="rgb(38, 38, 38)" stroke-width="0" stroke-linejoin="miter"/>
	<polygon points="1096,426 1194,540 1246,306" fill="rgb(120, 120, 120)" stroke="rgb(120, 120, 120)" stroke-width="0" stroke-linejoin="miter"/>
	<polygon points="1092,554 1014,812 1194,540" fill="rgb(98, 98, 98)" stroke="rgb(98, 98, 98)" stroke-width="0" stroke-linejoin="miter"/>
	<polygon points="1014,812 1176,924 1194,540" fill="rgb(234, 234, 234)" stroke="rgb(234, 234, 234)" stroke-width="0" stroke-linejoin="miter"/>
	<polygon points="1014,812 1058,886 1176,924" fill="rgb(168, 168, 168)" stroke="rgb(168, 168, 168)" stroke-width="0" stroke-linejoin="miter"/>
	<polygon points="1176,924 1194,1032 1296,1080" fill="rgb(69, 69, 69)" stroke="rgb(69, 69, 69)" stroke-width="0" stroke-linejoin="miter"/>
	<polygon points="1396,0 1296,0 1430,228" fill="rgb(19, 19, 19)" stroke="rgb(19, 19, 19)" stroke-width="0" stroke-linejoin="miter"/>
	<polygon points="1174,92 1246,306 1430,228" fill="rgb(19, 19, 19)" stroke="rgb(19, 19, 19)" stroke-width="0" stroke-linejoin="miter"/>
	<polygon points="1296,0 1174,92 1430,228" fill="rgb(65, 65, 65)" stroke="rgb(65, 65, 65)" stroke-width="0" stroke-linejoin="miter"/>
	<polygon points="1246,306 1194,540 1412,548" fill="rgb(77, 77, 77)" stroke="rgb(77, 77, 77)" stroke-width="0" stroke-linejoin="miter"/>
	<polygon points="1194,540 1176,924 1412,548" fill="rgb(152, 152, 152)" stroke="rgb(152, 152, 152)" stroke-width="0" stroke-linejoin="miter"/>
	<polygon points="1176,924 1296,1080 1396,1080" fill="rgb(75, 75, 75)" stroke="rgb(75, 75, 75)" stroke-width="0" stroke-linejoin="miter"/>
	<polygon points="1396,1080 1496,1080 1526,940" fill="rgb(55, 55, 55)" stroke="rgb(55, 55, 55)" stroke-width="0" stroke-linejoin="miter"/>
	<polygon points="1176,924 1396,1080 1526,940" fill="rgb(61, 61, 61)" stroke="rgb(61, 61, 61)" stroke-width="0" stroke-linejoin="miter"/>
	<polygon points="1396,0 1430,228 1496,0" fill="rgb(36, 36, 36)" stroke="rgb(36, 36, 36)" stroke-width="0" stroke-linejoin="miter"/>
	<polygon points="1246,306 1412,548 1430,228" fill="rgb(17, 17, 17)" stroke="rgb(17, 17, 17)" stroke-width="0" stroke-linejoin="miter"/>
	<polygon points="1430,228 1412,548 1572,360" fill="rgb(70, 70, 70)" stroke="rgb(70, 70, 70)" stroke-width="0" stroke-linejoin="miter"/>
	<polygon points="1412,548 1176,924 1526,940" fill="rgb(62, 62, 62)" stroke="rgb(62, 62, 62)" stroke-width="0" stroke-linejoin="miter"/>
	<polygon points="1526,940 1496,1080 1616,1028" fill="rgb(138, 138, 138)" stroke="rgb(138, 138, 138)" stroke-width="0" stroke-linejoin="miter"/>
	<polygon points="1496,1080 1596,1080 1616,1028" fill="rgb(32, 32, 32)" stroke="rgb(32, 32, 32)" stroke-width="0" stroke-linejoin="miter"/>
	<polygon points="1496,0 1430,228 1662,84" fill="rgb(20, 20, 20)" stroke="rgb(20, 20, 20)" stroke-width="0" stroke-linejoin="miter"/>
	<polygon points="1596,0 1496,0 1662,84" fill="rgb(118, 118, 118)" stroke="rgb(118, 118, 118)" stroke-width="0" stroke-linejoin="miter"/>
	<polygon points="1412,548 1526,940 1642,612" fill="rgb(45, 45, 45)" stroke="rgb(45, 45, 45)" stroke-width="0" stroke-linejoin="miter"/>
	<polygon points="1572,360 1412,548 1642,612" fill="rgb(56, 56, 56)" stroke="rgb(56, 56, 56)" stroke-width="0" stroke-linejoin="miter"/>
	<polygon points="1616,1028 1596,1080 1696,1080" fill="rgb(79, 79, 79)" stroke="rgb(79, 79, 79)" stroke-width="0" stroke-linejoin="miter"/>
	<polygon points="1596,0 1662,84 1696,0" fill="rgb(123, 123, 123)" stroke="rgb(123, 123, 123)" stroke-width="0" stroke-linejoin="miter"/>
	<polygon points="1430,228 1572,360 1662,84" fill="rgb(134, 134, 134)" stroke="rgb(134, 134, 134)" stroke-width="0" stroke-linejoin="miter"/>
	<polygon points="1696,0 1662,84 1795,0" fill="rgb(11, 11, 11)" stroke="rgb(11, 11, 11)" stroke-width="0" stroke-linejoin="miter"/>
	<polygon points="1616,1028 1696,1080 1795,1080" fill="rgb(62, 62, 62)" stroke="rgb(62, 62, 62)" stroke-width="0" stroke-linejoin="miter"/>
	<polygon points="1895,0 1795,0 1920,99" fill="rgb(10, 10, 10)" stroke="rgb(10, 10, 10)" stroke-width="0" stroke-linejoin="miter"/>
	<polygon points="1795,0 1662,84 1920,99" fill="rgb(24, 24, 24)" stroke="rgb(24, 24, 24)" stroke-width="0" stroke-linejoin="miter"/>
	<polygon points="1920,0 1895,0 1920,99" fill="rgb(9, 9, 9)" stroke="rgb(9, 9, 9)" stroke-width="0" stroke-linejoin="miter"/>
	<polygon points="1572,360 1642,612 1920,498" fill="rgb(32, 32, 32)" stroke="rgb(32, 32, 32)" stroke-width="0" stroke-linejoin="miter"/>
	<polygon points="1920,498 1642,612 1920,598" fill="rgb(38, 38, 38)" stroke="rgb(38, 38, 38)" stroke-width="0" stroke-linejoin="miter"/>
	<polygon points="1616,1028 1795,1080 1920,897" fill="rgb(154, 154, 154)" stroke="rgb(154, 154, 154)" stroke-width="0" stroke-linejoin="miter"/>
	<polygon points="1920,99 1662,84 1920,199" fill="rgb(55, 55, 55)" stroke="rgb(55, 55, 55)" stroke-width="0" stroke-linejoin="miter"/>
	<polygon points="1642,612 1526,940 1920,798" fill="rgb(13, 13, 13)" stroke="rgb(13, 13, 13)" stroke-width="0" stroke-linejoin="miter"/>
	<polygon points="1616,1028 1920,897 1920,798" fill="rgb(30, 30, 30)" stroke="rgb(30, 30, 30)" stroke-width="0" stroke-linejoin="miter"/>
	<polygon points="1526,940 1616,1028 1920,798" fill="rgb(74, 74, 74)" stroke="rgb(74, 74, 74)" stroke-width="0" stroke-linejoin="miter"/>
	<polygon points="1920,199 1662,84 1920,299" fill="rgb(11, 11, 11)" stroke="rgb(11, 11, 11)" stroke-width="0" stroke-linejoin="miter"/>
	<polygon points="1662,84 1572,360 1920,299" fill="rgb(50, 50, 50)" stroke="rgb(50, 50, 50)" stroke-width="0" stroke-linejoin="miter"/>
	<polygon points="1920,299 1572,360 1920,399" fill="rgb(47, 47, 47)" stroke="rgb(47, 47, 47)" stroke-width="0" stroke-linejoin="miter"/>
	<polygon points="1572,360 1920,498 1920,399" fill="rgb(29, 29, 29)" stroke="rgb(29, 29, 29)" stroke-width="0" stroke-linejoin="miter"/>
	<polygon points="1920,897 1795,1080 1920,997" fill="rgb(90, 90, 90)" stroke="rgb(90, 90, 90)" stroke-width="0" stroke-linejoin="miter"/>
	<polygon points="1795,1080 1895,1080 1920,997" fill="rgb(133, 133, 133)" stroke="rgb(133, 133, 133)" stroke-width="0" stroke-linejoin="miter"/>
	<polygon points="1895,1080 1918,1078 1920,997" fill="rgb(82, 82, 82)" stroke="rgb(82, 82, 82)" stroke-width="0" stroke-linejoin="miter"/>
	<polygon points="1918,1078 1895,1080 1920,1080" fill="rgb(109, 109, 109)" stroke="rgb(109, 109, 109)" stroke-width="0" stroke-linejoin="miter"/>
	<polygon points="1920,997 1918,1078 1920,1080" fill="rgb(68, 68, 68)" stroke="rgb(68, 68, 68)" stroke-width="0" stroke-linejoin="miter"/>
	<polygon points="1642,612 1920,798 1920,698" fill="rgb(21, 21, 21)" stroke="rgb(21, 21, 21)" stroke-width="0" stroke-linejoin="miter"/>
	<polygon points="1920,598 1642,612 1920,698" fill="rgb(67, 67, 67)" stroke="rgb(67, 67, 67)" stroke-width="0" stroke-linejoin="miter"/>
	
</svg>