<?xml version="1.0" encoding="UTF-8" standalone="no"?>
<!-- Created with Inkscape (http://www.inkscape.org/) -->

<svg
   xmlns:dc="http://purl.org/dc/elements/1.1/"
   xmlns:cc="http://creativecommons.org/ns#"
   xmlns:rdf="http://www.w3.org/1999/02/22-rdf-syntax-ns#"
   xmlns:svg="http://www.w3.org/2000/svg"
   xmlns="http://www.w3.org/2000/svg"
   xmlns:xlink="http://www.w3.org/1999/xlink"
   xmlns:sodipodi="http://sodipodi.sourceforge.net/DTD/sodipodi-0.dtd"
   xmlns:inkscape="http://www.inkscape.org/namespaces/inkscape"
   version="1.1"
   id="svg10"
   width="664"
   height="741"
   viewBox="0 0 664 741"
   sodipodi:docname="logo.svg"
   inkscape:version="0.92.2 (5c3e80d, 2017-08-06)">
  <metadata
     id="metadata16">
    <rdf:RDF>
      <cc:Work
         rdf:about="">
        <dc:format>image/svg+xml</dc:format>
        <dc:type
           rdf:resource="http://purl.org/dc/dcmitype/StillImage" />
        <dc:title></dc:title>
      </cc:Work>
    </rdf:RDF>
  </metadata>
  <defs
     id="defs14" />
  <sodipodi:namedview
     pagecolor="#ffffff"
     bordercolor="#666666"
     borderopacity="1"
     objecttolerance="10"
     gridtolerance="10"
     guidetolerance="10"
     inkscape:pageopacity="0"
     inkscape:pageshadow="2"
     inkscape:window-width="1842"
     inkscape:window-height="1057"
     id="namedview12"
     showgrid="false"
     inkscape:zoom="0.60053981"
     inkscape:cx="265.82945"
     inkscape:cy="584.27249"
     inkscape:window-x="-8"
     inkscape:window-y="-8"
     inkscape:window-maximized="1"
     inkscape:current-layer="svg10" />
  <image
     sodipodi:absref="C:\Users\Thomas\Desktop\logo2.PNG"
     xlink:href="logo2.PNG"
     y="3.330337"
     x="-688.54718"
     id="image18"
     preserveAspectRatio="none"
     height="741"
     width="664" />
  <g
     id="g20"
     transform="translate(1440.3708,6.6606738)">
    <path
       style="fill:#a4d5d8"
       d="m -688.54718,669.41824 v -74.9121 l 3.75,-0.59403 c 2.0625,-0.32672 55.275,-6.90293 118.25,-14.61381 l 114.5,-14.01977 9.5,4.40018 c 17.62326,8.16268 33.88686,13.26709 51.5,16.16355 17.57696,2.89051 59.11478,1.36984 82,-3.00196 27.83676,-5.31769 60.0398,-20.82125 84.10612,-40.49132 l 7.10613,-5.80803 94.42422,-11.6053 c 51.93332,-6.38292 95.42306,-11.60531 96.64387,-11.60531 h 2.21966 v 74.93873 74.93872 l -4.25,0.59898 c -19.21697,2.70834 -656.02404,80.52357 -658.97099,80.52357 -0.42846,0 -0.77901,-33.71045 -0.77901,-74.9121 z m 1.25,-94.79055 c -0.98473,-0.36554 -1.25,-16.34009 -1.25,-75.27369 0,-63.49215 0.21355,-74.89163 1.41157,-75.35135 2.5121,-0.96399 117.71985,-14.83586 119.03199,-14.33234 0.69849,0.26804 2.28747,4.91369 3.53106,10.32368 5.31171,23.1075 15.7073,48.66125 26.76949,65.80298 11.74487,18.1996 32.0016,40.63552 49.50589,54.83166 4.8125,3.90299 8.75,7.44897 8.75,7.87997 0,0.431 -1.0125,1.01413 -2.25,1.29585 -1.2375,0.28172 -46.575,5.90928 -100.75,12.5057 -54.175,6.59641 -99.625,12.17079 -101,12.38751 -1.375,0.21672 -3.0625,0.18524 -3.75,-0.07 z m 314.25,-55.79758 c -4.4,-0.69902 -11.85554,-2.19453 -16.56788,-3.32335 -30.37107,-7.27529 -64.60871,-29.75893 -83.26016,-54.67642 -12.59475,-16.826 -28.47863,-57.02931 -23.69879,-59.98342 1.56289,-0.96592 24.08309,-3.70897 25.6172,-3.12028 0.66614,0.25563 2.64912,5.09326 4.40663,10.75029 5.59502,18.00916 13.01459,30.65401 25.90117,44.14225 13.89249,14.54111 30.81603,25.47151 50.10183,32.35925 6.84629,2.44509 9.10121,2.71639 25.87057,3.11265 43.0523,1.0173 65.34507,-7.55544 92.33314,-35.50695 20.48971,-21.22117 27.80435,-38.29155 29.42885,-68.67897 0.43165,-8.07431 1.14284,-13.20736 1.94039,-14.00491 0.69245,-0.69245 6.13431,-1.81164 12.09303,-2.48708 5.95871,-0.67545 11.5741,-1.43568 12.47865,-1.6894 5.02981,-1.41086 6.10972,7.23199 3.3084,26.47823 -5.05783,34.74947 -18.50577,62.42146 -41.37673,85.1414 -19.27658,19.14929 -44.88172,32.84156 -72.0763,38.54258 -22.18265,4.65032 -31.8911,5.26501 -46.5,2.94413 z m 181.25,-5.19193 c -0.9625,-0.24997 -1.75,-0.79446 -1.75,-1.20998 0,-0.41552 2.41944,-3.87002 5.37653,-7.67667 21.63805,-27.85459 37.30629,-64.77506 42.15993,-99.34526 0.82625,-5.88497 1.47021,-18.07741 1.47885,-28 0.008,-9.66676 0.37349,-18.14006 0.81126,-18.82956 0.52927,-0.8336 19.87309,-3.59693 57.73469,-8.24758 31.31631,-3.84667 57.95124,-6.99504 59.18874,-6.99637 l 2.25,-0.002 v 74.9121 74.9121 l -3.75,0.5808 c -2.0625,0.31944 -7.8,1.04579 -12.75,1.61412 -4.95,0.56832 -17.28354,2.16915 -27.40787,3.55739 -10.12433,1.38825 -40.27433,5.19404 -67,8.45732 -26.72567,3.26328 -49.94213,6.11217 -51.59213,6.33086 -1.65,0.2187 -3.7875,0.19311 -4.75,-0.0568 z m -495.75,-184.21788 v -74.6327 l 84.11735,-10.31128 c 46.26455,-5.6712 84.49761,-9.93102 84.96237,-9.46626 0.46476,0.46476 -0.96591,3.08945 -3.17928,5.83265 -7.73441,9.58587 -16.31502,23.05196 -22.9193,35.96871 -17.00437,33.25742 -24.98114,64.03582 -24.98114,96.38989 0,10.72438 -0.34934,15.15467 -1.25,15.85214 -0.6875,0.53239 -26.225,3.97325 -56.75,7.64635 -30.525,3.6731 -56.5125,6.8302 -57.75,7.01578 l -2.25,0.33742 z m 187.67767,51.25437 c -1.74316,-1.74316 0.36982,-25.31675 3.40635,-38.00307 12.8904,-53.85483 57.4919,-97.28043 111.9741,-109.02194 11.95712,-2.57689 42.88622,-2.57888 54.94188,-0.004 28.34837,6.05581 53.28063,19.30077 73.98465,39.30345 19.24112,18.58932 31.97114,40.1066 38.08885,64.38077 1.6432,6.51995 1.70015,7.64245 0.43584,8.59014 -0.79989,0.59957 -6.66606,1.64697 -13.03592,2.32756 -12.91385,1.37977 -13.90819,1.09872 -14.98953,-4.2368 -1.96712,-9.70612 -10.87533,-27.92541 -18.76685,-38.38244 -18.3232,-24.28 -45.28866,-40.33993 -75.21704,-44.79732 -12.6919,-1.89027 -20.57911,-1.88213 -32.5,0.0335 -30.04602,4.82834 -54.52637,18.78827 -74.32207,42.38218 -16.21009,19.32034 -23.29434,37.2102 -25.276,63.82955 -0.37859,5.08552 -1.1864,9.63443 -1.79514,10.10867 -0.60873,0.47425 -6.05679,1.40855 -12.10679,2.07622 -6.05,0.66768 -11.70755,1.41122 -12.57233,1.65233 -0.86479,0.2411 -1.87729,0.13342 -2.25,-0.2393 z m 352.3087,-49.09433 c -6.09561,-30.3349 -19.92583,-60.0357 -40.67061,-87.34133 -7.99374,-10.52189 -29.38588,-31.81972 -39.08098,-38.90867 -6.30033,-4.60674 -7.17422,-5.74397 -4.98478,-6.48696 0.6875,-0.23331 45.575,-5.86267 99.75,-12.5097 54.175,-6.64703 100.6375,-12.35 103.25,-12.67326 l 4.75,-0.58774 v 75.12883 c 0,65.33152 -0.19113,75.12883 -1.46563,75.12883 -0.8061,0 -27.11467,3.15 -58.4635,7 -31.34882,3.85 -58.10738,7 -59.46347,7 -2.20098,0 -2.58961,-0.61713 -3.62103,-5.75 z m -539.53927,-97.6596 c -0.20221,-0.59972 -0.49802,-34.5084 -0.65737,-75.35263 -0.2548,-65.308605 -0.10888,-74.317775 1.21027,-74.722932 0.825,-0.253387 14.325,-2.041389 30,-3.973338 446.86331,-55.076058 599.58616,-73.7366293 610.42275,-74.5850222 6.55752,-0.5133853 14.09502,-1.2215886 16.75,-1.573785 l 4.82725,-0.6403571 V 78.094518 c 0,66.636482 -0.17217,75.087912 -1.54032,75.612922 -0.84718,0.32509 -54.83579,7.13785 -119.97469,15.13946 l -118.43437,14.54839 -9.27531,-3.9187 c -14.65851,-6.19302 -22.42142,-8.60116 -42.76602,-13.26648 -2.46989,-0.56639 -9.89489,-1.66713 -16.5,-2.44609 -53.71957,-6.33535 -106.45586,8.82496 -155.00929,44.56113 l -4,2.94407 -94.5,11.52764 c -51.975,6.3402 -95.77918,11.68214 -97.34263,11.87096 -1.56344,0.18883 -3.00807,-0.14736 -3.21027,-0.74708 z"
       id="path28"
       inkscape:connector-curvature="0" />
    <path
       style="fill:#689ea0"
       d="m -688.54718,669.33034 c 0,-64.68335 0.19849,-75 1.443,-75 0.79365,0 52.88115,-6.3153 115.75,-14.03399 62.86885,-7.7187 115.657,-14.08455 117.307,-14.14634 1.65,-0.0618 6.15,1.46315 10,3.38876 15.112,7.55841 33.80199,13.65464 50,16.30881 18.18138,2.97916 65.17119,1.3962 87.58983,-2.95066 12.95998,-2.51287 26.80697,-7.44199 42.41017,-15.09677 16.21797,-7.95637 27.49491,-15.04582 39.89502,-25.0807 4.34226,-3.51401 8.61726,-6.38958 9.5,-6.39016 0.88274,-5.7e-4 43.67998,-5.1751 95.10498,-11.49895 51.425,-6.32385 93.8375,-11.49838 94.25,-11.49895 0.4125,-5.8e-4 0.75,33.74895 0.75,74.99895 0,69.3776 -0.12513,75 -1.66913,75 -1.81844,0 -641.70968,78.50039 -652.33087,80.02645 -3.575,0.51367 -7.2875,0.94285 -8.25,0.95374 -1.65129,0.0187 -1.75,-4.21074 -1.75,-74.98019 z m 0,-170 c 0,-47.55375 0.35337,-75 0.96563,-75 0.5311,0 26.61467,-3.15 57.9635,-7 31.34882,-3.85 58.15341,-7 59.56575,-7 1.41234,0 2.73952,0.5625 2.9493,1.25 0.20978,0.6875 1.37509,5.525 2.58959,10.75 6.8577,29.50303 18.91781,55.20438 37.28895,79.46663 7.93309,10.477 26.87506,29.87135 37.92728,38.83305 8.4841,6.87934 10.06259,8.70032 7.54177,8.70032 -0.66453,0 -46.99235,5.625 -102.95072,12.5 -55.95836,6.875 -102.21465,12.5 -102.79176,12.5 -0.72306,0 -1.04929,-23.31799 -1.04929,-75 z m 313.5,18.49136 c -31.52769,-5.04187 -58.97228,-18.69735 -82.38389,-40.99136 -12.47671,-11.88111 -20.18853,-22.38914 -27.1542,-37 -8.00652,-16.79408 -13.91378,-35.64814 -11.92131,-38.04892 1.14943,-1.38498 24.86737,-3.9571 25.95275,-2.81448 0.45108,0.47487 1.80738,4.2384 3.01401,8.3634 5.58337,19.08739 14.32647,33.64667 28.85704,48.05362 11.11713,11.02255 24.09297,19.95567 37.57585,25.8688 14.98825,6.57333 22.43854,8.07823 39.96971,8.07356 39.83463,-0.0106 63.76572,-9.72984 89.31912,-36.27551 20.36093,-21.15157 28.07768,-39.56212 30.0615,-71.72047 l 0.70942,-11.5 8.5,-1.21083 c 4.675,-0.66596 10.975,-1.34096 14,-1.5 l 5.5,-0.28917 0.29606,7.97208 c 0.30669,8.25808 -1.85008,25.78556 -4.36456,35.46964 -6.87139,26.464 -19.05518,47.89225 -37.85323,66.57443 -19.27132,19.15254 -43.68742,32.47378 -69.72026,38.03884 -21.68315,4.63523 -34.91141,5.40657 -50.35801,2.93637 z m 182.5,-5.51283 c 0,-0.5618 2.19799,-3.8243 4.88442,-7.25 10.33946,-13.18471 23.71593,-36.80567 29.71604,-52.47435 10.46621,-27.33142 14.31666,-47.84228 14.36783,-76.53556 0.0237,-13.29583 0.34704,-17.89446 1.28171,-18.2296 0.6875,-0.24652 25.55,-3.36891 55.25,-6.93866 29.7,-3.56974 55.9125,-6.7565 58.25,-7.08167 l 4.25,-0.59124 v 74.90596 74.90596 l -17.25,2.09194 c -9.4875,1.15056 -46.64906,5.72046 -82.58124,10.15531 -35.93218,4.43486 -65.96968,8.06338 -66.75,8.06338 -0.78032,0 -1.41876,-0.45966 -1.41876,-1.02147 z m -495,-353.17648 c 0,-45.26847 0.36358,-74.695385 0.91864,-74.352337 0.50525,0.312263 11.86775,-0.794229 25.25,-2.458872 27.55458,-3.427565 111.64576,-13.762377 411.83136,-50.614111 115.225,-14.145385 209.725,-26.0283978 210,-26.4066947 0.275,-0.3782969 3.7625,-1.0035616 7.75,-1.3894772 l 7.25,-0.7016648 -10e-4,74.8105517 -0.001,74.810555 -4.74891,0.16442 c -2.6119,0.0904 -56.62892,6.5488 -120.03781,14.35195 l -115.28891,14.18754 -8.65313,-3.71735 c -4.75923,-2.04454 -12.6613,-5.00559 -17.56016,-6.58012 -8.06295,-2.59149 -12.83311,-3.84687 -26.69961,-7.02667 -8.38395,-1.92257 -28.46439,-3.86236 -40.07287,-3.87108 -43.05091,-0.0324 -96.45946,18.7565 -129.56362,45.57981 l -4.1272,3.34415 -94.3728,11.50182 c -51.90522,6.32601 -96.06048,11.90364 -98.12298,12.39475 l -3.75,0.89292 z"
       id="path26"
       inkscape:connector-curvature="0" />
    <path
       style="fill:#dc8628"
       d="m -688.54718,669.33034 c 0,-64.68335 0.19849,-75 1.443,-75 0.79365,0 52.88115,-6.3153 115.75,-14.03399 62.86885,-7.7187 115.657,-14.08455 117.307,-14.14634 1.65,-0.0618 6.15,1.46315 10,3.38876 15.112,7.55841 33.80199,13.65464 50,16.30881 18.18138,2.97916 65.17119,1.3962 87.58983,-2.95066 12.95998,-2.51287 26.80697,-7.44199 42.41017,-15.09677 16.21797,-7.95637 27.49491,-15.04582 39.89502,-25.0807 4.34226,-3.51401 8.61726,-6.38958 9.5,-6.39016 0.88274,-5.7e-4 43.67998,-5.1751 95.10498,-11.49895 51.425,-6.32385 93.8375,-11.49838 94.25,-11.49895 0.4125,-5.8e-4 0.75,33.74895 0.75,74.99895 0,69.3776 -0.12513,75 -1.66913,75 -1.81844,0 -641.70968,78.50039 -652.33087,80.02645 -3.575,0.51367 -7.2875,0.94285 -8.25,0.95374 -1.65129,0.0187 -1.75,-4.21074 -1.75,-74.98019 z m 0,-170 c 0,-47.55375 0.35337,-75 0.96563,-75 0.5311,0 26.61467,-3.15 57.9635,-7 31.34882,-3.85 58.15341,-7 59.56575,-7 1.41234,0 2.73952,0.5625 2.9493,1.25 0.20978,0.6875 1.37509,5.525 2.58959,10.75 6.8577,29.50303 18.91781,55.20438 37.28895,79.46663 7.93309,10.477 26.87506,29.87135 37.92728,38.83305 8.4841,6.87934 10.06259,8.70032 7.54177,8.70032 -0.66453,0 -46.99235,5.625 -102.95072,12.5 -55.95836,6.875 -102.21465,12.5 -102.79176,12.5 -0.72306,0 -1.04929,-23.31799 -1.04929,-75 z m 313.5,18.49136 c -31.52769,-5.04187 -58.97228,-18.69735 -82.38389,-40.99136 -12.47671,-11.88111 -20.18853,-22.38914 -27.1542,-37 -8.00652,-16.79408 -13.91378,-35.64814 -11.92131,-38.04892 1.14943,-1.38498 24.86737,-3.9571 25.95275,-2.81448 0.45108,0.47487 1.80738,4.2384 3.01401,8.3634 5.58337,19.08739 14.32647,33.64667 28.85704,48.05362 11.11713,11.02255 24.09297,19.95567 37.57585,25.8688 14.98825,6.57333 22.43854,8.07823 39.96971,8.07356 39.83463,-0.0106 63.76572,-9.72984 89.31912,-36.27551 20.36093,-21.15157 28.07768,-39.56212 30.0615,-71.72047 l 0.70942,-11.5 8.5,-1.21083 c 4.675,-0.66596 10.975,-1.34096 14,-1.5 l 5.5,-0.28917 0.29606,7.97208 c 0.30669,8.25808 -1.85008,25.78556 -4.36456,35.46964 -6.87139,26.464 -19.05518,47.89225 -37.85323,66.57443 -19.27132,19.15254 -43.68742,32.47378 -69.72026,38.03884 -21.68315,4.63523 -34.91141,5.40657 -50.35801,2.93637 z m 182.5,-5.51283 c 0,-0.5618 2.19799,-3.8243 4.88442,-7.25 10.33946,-13.18471 23.71593,-36.80567 29.71604,-52.47435 10.46621,-27.33142 14.31666,-47.84228 14.36783,-76.53556 0.0237,-13.29583 0.34704,-17.89446 1.28171,-18.2296 0.6875,-0.24652 25.55,-3.36891 55.25,-6.93866 29.7,-3.56974 55.9125,-6.7565 58.25,-7.08167 l 4.25,-0.59124 v 74.90596 74.90596 l -17.25,2.09194 c -9.4875,1.15056 -46.64906,5.72046 -82.58124,10.15531 -35.93218,4.43486 -65.96968,8.06338 -66.75,8.06338 -0.78032,0 -1.41876,-0.45966 -1.41876,-1.02147 z"
       id="path24"
       inkscape:connector-curvature="0" />
    <path
       style="fill:#de6f26"
       d="m -688.54718,499.33034 c 0,-66.49897 0.36584,-79.00887 2.16667,-74.08941 0.18457,0.50423 25.32418,-2.16734 56.33333,-5.9865 30.8,-3.7934 57.18471,-6.90317 58.63269,-6.91059 2.4952,-0.0128 2.74926,0.46958 4.86481,9.2365 7.96157,32.99316 21.28721,60.47382 41.33853,85.25 6.64508,8.21091 27.25563,28.84974 36.16397,36.21358 3.52505,2.9139 4.55752,4.27536 3.5,4.61529 -0.825,0.2652 -46.275,5.93972 -101,12.61006 -54.725,6.67033 -99.65,12.56285 -99.83333,13.09447 -1.79291,5.19906 -2.16667,-7.57197 -2.16667,-74.0334 z m 312.5,16.49136 c -18.08615,-2.89232 -30.06319,-6.89849 -45.5,-15.21917 -20.22063,-10.89923 -38.03466,-25.63093 -49.27868,-40.75208 -9.30472,-12.51314 -18.81409,-32.70059 -22.73738,-48.26919 -1.07428,-4.263 -1.96014,-8.0154 -1.96859,-8.33866 -0.0264,-1.01237 23.07825,-3.22481 23.91292,-2.28984 0.43088,0.48267 2.02066,4.92037 3.53283,9.86155 5.1353,16.78013 12.88284,29.71165 25.97066,43.34798 15.12018,15.75386 33.25707,27.17804 53.56824,33.74187 7.27552,2.35119 10.65438,2.81225 23.45506,3.20053 31.5552,0.95718 56.41564,-5.73451 76.04494,-20.46902 10.5893,-7.94874 27.14661,-25.17029 33.3805,-34.71965 9.18964,-14.07712 14.37059,-31.66745 15.70917,-53.33568 0.38224,-6.1875 0.96844,-11.26426 1.30266,-11.28168 0.33422,-0.0174 5.33267,-0.67817 11.10767,-1.46832 5.775,-0.79015 11.0625,-1.45089 11.75,-1.46832 2.98435,-0.0756 0.51868,28.42949 -3.88972,44.96832 -10.37949,38.94036 -37.78919,71.83216 -74.14147,88.97017 -15.78352,7.44103 -24.54363,10.04237 -45.71881,13.57633 -10.24674,1.7101 -25.60677,1.68689 -36.5,-0.0551 z m 190.36755,-10.74136 c 17.98116,-22.92911 33.15288,-55.84037 39.76027,-86.25 3.05916,-14.07939 4.30946,-26.36843 4.34047,-42.6621 l 0.0317,-16.6621 3.75,-0.58267 c 2.0625,-0.32046 15.225,-1.95421 29.25,-3.63056 50.38201,-6.02192 80.66153,-9.89546 82.31602,-10.53035 1.56932,-0.6022 1.68398,4.4071 1.68398,73.56778 0,65.53158 -0.17535,74.14669 -1.49884,73.63882 -0.82436,-0.31634 -8.58686,0.32495 -17.25,1.42507 -27.1499,3.44775 -145.36732,17.93611 -146.34927,17.93611 -0.5146,0 1.26995,-2.8125 3.96566,-6.25 z"
       id="path22"
       inkscape:connector-curvature="0" />
  </g>
</svg>
