<?xml version="1.0" encoding="UTF-8" standalone="no"?>
<!-- Created with Inkscape (http://www.inkscape.org/) -->

<svg
   xmlns:dc="http://purl.org/dc/elements/1.1/"
   xmlns:cc="http://creativecommons.org/ns#"
   xmlns:rdf="http://www.w3.org/1999/02/22-rdf-syntax-ns#"
   xmlns:svg="http://www.w3.org/2000/svg"
   xmlns="http://www.w3.org/2000/svg"
   xmlns:xlink="http://www.w3.org/1999/xlink"
   xmlns:sodipodi="http://sodipodi.sourceforge.net/DTD/sodipodi-0.dtd"
   xmlns:inkscape="http://www.inkscape.org/namespaces/inkscape"
   version="1.1"
   id="svg10"
   width="664"
   height="741"
   viewBox="0 0 664 741"
   sodipodi:docname="logo.svg"
   inkscape:version="0.92.2 (5c3e80d, 2017-08-06)">
  <metadata
     id="metadata16">
    <rdf:RDF>
      <cc:Work
         rdf:about="">
        <dc:format>image/svg+xml</dc:format>
        <dc:type
           rdf:resource="http://purl.org/dc/dcmitype/StillImage" />
        <dc:title></dc:title>
      </cc:Work>
    </rdf:RDF>
  </metadata>
  <defs
     id="defs14" />
  <sodipodi:namedview
     pagecolor="#ffffff"
     bordercolor="#666666"
     borderopacity="1"
     objecttolerance="10"
     gridtolerance="10"
     guidetolerance="10"
     inkscape:pageopacity="0"
     inkscape:pageshadow="2"
     inkscape:window-width="1842"
     inkscape:window-height="1057"
     id="namedview12"
     showgrid="false"
     inkscape:zoom="0.60053981"
     inkscape:cx="434.08882"
     inkscape:cy="187.69969"
     inkscape:window-x="-8"
     inkscape:window-y="-8"
     inkscape:window-maximized="1"
     inkscape:current-layer="svg10" />
  <image
     sodipodi:absref="C:\Users\Thomas\Desktop\logo2.PNG"
     xlink:href="logo2.PNG"
     y="0"
     x="0"
     id="image18"
     preserveAspectRatio="none"
     height="741"
     width="664" />
  <g
     id="g20"
     transform="translate(-737.66966,48.289888)">
    <path
       style="fill:#fdfdfd"
       d="M 0,370.5 V 0 H 332 664 V 370.5 741 H 332 0 Z"
       id="path30"
       inkscape:connector-curvature="0" />
    <path
       style="fill:#a4d5d8"
       d="m 0,666.0879 v -74.9121 l 3.75,-0.59403 C 5.8125,590.25505 59.025,583.67884 122,575.96796 l 114.5,-14.01977 9.5,4.40018 c 17.62326,8.16268 33.88686,13.26709 51.5,16.16355 17.57696,2.89051 59.11478,1.36984 82,-3.00196 27.83676,-5.31769 60.0398,-20.82125 84.10612,-40.49132 l 7.10613,-5.80803 94.42422,-11.6053 C 617.06979,515.22239 660.55953,510 661.78034,510 H 664 v 74.93873 74.93872 l -4.25,0.59898 C 640.53303,663.18477 3.7259627,741 0.77900546,741 0.35055246,741 0,707.28955 0,666.0879 Z M 1.25,571.29735 C 0.26527445,570.93181 0,554.95726 0,496.02366 0,432.53151 0.21354887,421.13203 1.4115724,420.67231 3.9236702,419.70832 119.13142,405.83645 120.44356,406.33997 c 0.69849,0.26804 2.28747,4.91369 3.53106,10.32368 5.31171,23.1075 15.7073,48.66125 26.76949,65.80298 11.74487,18.1996 32.0016,40.63552 49.50589,54.83166 4.8125,3.90299 8.75,7.44897 8.75,7.87997 0,0.431 -1.0125,1.01413 -2.25,1.29585 -1.2375,0.28172 -46.575,5.90928 -100.75,12.5057 -54.175,6.59641 -99.625,12.17079 -101,12.38751 -1.375,0.21672 -3.0625,0.18524 -3.75,-0.07 z M 315.5,515.49977 c -4.4,-0.69902 -11.85554,-2.19453 -16.56788,-3.32335 -30.37107,-7.27529 -64.60871,-29.75893 -83.26016,-54.67642 -12.59475,-16.826 -28.47863,-57.02931 -23.69879,-59.98342 1.56289,-0.96592 24.08309,-3.70897 25.6172,-3.12028 0.66614,0.25563 2.64912,5.09326 4.40663,10.75029 5.59502,18.00916 13.01459,30.65401 25.90117,44.14225 13.89249,14.54111 30.81603,25.47151 50.10183,32.35925 6.84629,2.44509 9.10121,2.71639 25.87057,3.11265 43.0523,1.0173 65.34507,-7.55544 92.33314,-35.50695 20.48971,-21.22117 27.80435,-38.29155 29.42885,-68.67897 0.43165,-8.07431 1.14284,-13.20736 1.94039,-14.00491 0.69245,-0.69245 6.13431,-1.81164 12.09303,-2.48708 5.95871,-0.67545 11.5741,-1.43568 12.47865,-1.6894 5.02981,-1.41086 6.10972,7.23199 3.3084,26.47823 -5.05783,34.74947 -18.50577,62.42146 -41.37673,85.1414 -19.27658,19.14929 -44.88172,32.84156 -72.0763,38.54258 -22.18265,4.65032 -31.8911,5.26501 -46.5,2.94413 z m 181.25,-5.19193 c -0.9625,-0.24997 -1.75,-0.79446 -1.75,-1.20998 0,-0.41552 2.41944,-3.87002 5.37653,-7.67667 21.63805,-27.85459 37.30629,-64.77506 42.15993,-99.34526 0.82625,-5.88497 1.47021,-18.07741 1.47885,-28 0.008,-9.66676 0.37349,-18.14006 0.81126,-18.82956 0.52927,-0.8336 19.87309,-3.59693 57.73469,-8.24758 31.31631,-3.84667 57.95124,-6.99504 59.18874,-6.99637 L 664,340 v 74.9121 74.9121 l -3.75,0.5808 c -2.0625,0.31944 -7.8,1.04579 -12.75,1.61412 -4.95,0.56832 -17.28354,2.16915 -27.40787,3.55739 -10.12433,1.38825 -40.27433,5.19404 -67,8.45732 -26.72567,3.26328 -49.94213,6.11217 -51.59213,6.33086 -1.65,0.2187 -3.7875,0.19311 -4.75,-0.0568 z M 1,326.08996 v -74.6327 l 84.117352,-10.31128 c 46.264548,-5.6712 84.497608,-9.93102 84.962368,-9.46626 0.46476,0.46476 -0.96591,3.08945 -3.17928,5.83265 -7.73441,9.58587 -16.31502,23.05196 -22.9193,35.96871 C 126.97677,306.7385 119,337.5169 119,369.87097 c 0,10.72438 -0.34934,15.15467 -1.25,15.85214 -0.6875,0.53239 -26.225,3.97325 -56.75,7.64635 -30.525,3.6731 -56.5125,6.8302 -57.75,7.01578 L 1,400.72266 Z m 187.67767,51.25437 c -1.74316,-1.74316 0.36982,-25.31675 3.40635,-38.00307 12.8904,-53.85483 57.4919,-97.28043 111.9741,-109.02194 11.95712,-2.57689 42.88622,-2.57888 54.94188,-0.004 28.34837,6.05581 53.28063,19.30077 73.98465,39.30345 19.24112,18.58932 31.97114,40.1066 38.08885,64.38077 1.6432,6.51995 1.70015,7.64245 0.43584,8.59014 -0.79989,0.59957 -6.66606,1.64697 -13.03592,2.32756 -12.91385,1.37977 -13.90819,1.09872 -14.98953,-4.2368 -1.96712,-9.70612 -10.87533,-27.92541 -18.76685,-38.38244 -18.3232,-24.28 -45.28866,-40.33993 -75.21704,-44.79732 -12.6919,-1.89027 -20.57911,-1.88213 -32.5,0.0335 -30.04602,4.82834 -54.52637,18.78827 -74.32207,42.38218 -16.21009,19.32034 -23.29434,37.2102 -25.276,63.82955 -0.37859,5.08552 -1.1864,9.63443 -1.79514,10.10867 -0.60873,0.47425 -6.05679,1.40855 -12.10679,2.07622 -6.05,0.66768 -11.70755,1.41122 -12.57233,1.65233 -0.86479,0.2411 -1.87729,0.13342 -2.25,-0.2393 z M 540.98637,328.25 C 534.89076,297.9151 521.06054,268.2143 500.31576,240.90867 492.32202,230.38678 470.92988,209.08895 461.23478,202 c -6.30033,-4.60674 -7.17422,-5.74397 -4.98478,-6.48696 0.6875,-0.23331 45.575,-5.86267 99.75,-12.5097 54.175,-6.64703 100.6375,-12.35 103.25,-12.67326 l 4.75,-0.58774 v 75.12883 C 664,310.20269 663.80887,320 662.53437,320 c -0.8061,0 -27.11467,3.15 -58.4635,7 -31.34882,3.85 -58.10738,7 -59.46347,7 -2.20098,0 -2.58961,-0.61713 -3.62103,-5.75 z M 1.4470987,230.5904 C 1.2448941,229.99068 0.94907686,196.082 0.78972701,155.23777 0.53493171,89.929168 0.68085151,80.919998 2,80.514841 2.825,80.261454 16.325,78.473452 32,76.541503 478.86331,21.465445 631.58616,2.8048737 642.42275,1.9564808 c 6.55752,-0.5133853 14.09502,-1.2215886 16.75,-1.57378502 L 664,-0.25766134 V 74.764181 c 0,66.636479 -0.17217,75.087909 -1.54032,75.612919 -0.84718,0.32509 -54.83579,7.13785 -119.97469,15.13946 l -118.43437,14.54839 -9.27531,-3.9187 c -14.65851,-6.19302 -22.42142,-8.60116 -42.76602,-13.26648 -2.46989,-0.56639 -9.89489,-1.66713 -16.5,-2.44609 -53.71957,-6.33535 -106.45586,8.82496 -155.00929,44.56113 l -4,2.94407 -94.5,11.52764 c -51.975,6.3402 -95.7791827,11.68214 -97.3426283,11.87096 -1.5634455,0.18883 -3.0080683,-0.14736 -3.210273,-0.74708 z"
       id="path28"
       inkscape:connector-curvature="0" />
    <path
       style="fill:#689ea0"
       d="M 0,666 C 0,601.31665 0.19849271,591 1.4430019,591 2.236653,591 54.324153,584.6847 117.193,576.96601 c 62.86885,-7.7187 115.657,-14.08455 117.307,-14.14634 1.65,-0.0618 6.15,1.46315 10,3.38876 15.112,7.55841 33.80199,13.65464 50,16.30881 18.18138,2.97916 65.17119,1.3962 87.58983,-2.95066 12.95998,-2.51287 26.80697,-7.44199 42.41017,-15.09677 16.21797,-7.95637 27.49491,-15.04582 39.89502,-25.0807 4.34226,-3.51401 8.61726,-6.38958 9.5,-6.39016 C 474.77776,532.99838 517.575,527.82385 569,521.5 620.425,515.17615 662.8375,510.00162 663.25,510.00105 663.6625,510.00047 664,543.75 664,585 c 0,69.3776 -0.12513,75 -1.66913,75 C 660.51243,660 20.621195,738.50039 10,740.02645 6.425,740.54012 2.7125,740.9693 1.75,740.98019 0.09871281,740.99888 0,736.76945 0,666 Z M 0,496 c 0,-47.55375 0.35337289,-75 0.96563152,-75 0.53109738,0 26.61467048,-3.15 57.96349648,-7 31.348825,-3.85 58.153412,-7 59.565752,-7 1.41234,0 2.73952,0.5625 2.9493,1.25 0.20978,0.6875 1.37509,5.525 2.58959,10.75 6.8577,29.50303 18.91781,55.20438 37.28895,79.46663 7.93309,10.477 26.87506,29.87135 37.92728,38.83305 8.4841,6.87934 10.06259,8.70032 7.54177,8.70032 -0.66453,0 -46.99235,5.625 -102.95072,12.5 C 47.882692,565.375 1.6263978,571 1.0492889,571 0.32623071,571 0,547.68201 0,496 Z m 313.5,18.49136 C 281.97231,509.44949 254.52772,495.79401 231.11611,473.5 c -12.47671,-11.88111 -20.18853,-22.38914 -27.1542,-37 -8.00652,-16.79408 -13.91378,-35.64814 -11.92131,-38.04892 1.14943,-1.38498 24.86737,-3.9571 25.95275,-2.81448 0.45108,0.47487 1.80738,4.2384 3.01401,8.3634 5.58337,19.08739 14.32647,33.64667 28.85704,48.05362 11.11713,11.02255 24.09297,19.95567 37.57585,25.8688 14.98825,6.57333 22.43854,8.07823 39.96971,8.07356 39.83463,-0.0106 63.76572,-9.72984 89.31912,-36.27551 C 437.09001,428.5689 444.80676,410.15835 446.79058,378 L 447.5,366.5 456,365.28917 c 4.675,-0.66596 10.975,-1.34096 14,-1.5 l 5.5,-0.28917 0.29606,7.97208 c 0.30669,8.25808 -1.85008,25.78556 -4.36456,35.46964 -6.87139,26.464 -19.05518,47.89225 -37.85323,66.57443 -19.27132,19.15254 -43.68742,32.47378 -69.72026,38.03884 -21.68315,4.63523 -34.91141,5.40657 -50.35801,2.93637 z M 496,508.97853 c 0,-0.5618 2.19799,-3.8243 4.88442,-7.25 10.33946,-13.18471 23.71593,-36.80567 29.71604,-52.47435 10.46621,-27.33142 14.31666,-47.84228 14.36783,-76.53556 0.0237,-13.29583 0.34704,-17.89446 1.28171,-18.2296 0.6875,-0.24652 25.55,-3.36891 55.25,-6.93866 29.7,-3.56974 55.9125,-6.7565 58.25,-7.08167 l 4.25,-0.59124 v 74.90596 74.90596 l -17.25,2.09194 c -9.4875,1.15056 -46.64906,5.72046 -82.58124,10.15531 C 528.23658,506.37148 498.19908,510 497.41876,510 496.63844,510 496,509.54034 496,508.97853 Z M 1,155.80205 C 1,110.53358 1.3635759,81.106668 1.9186394,81.449716 2.423891,81.761979 13.786391,80.655487 27.168639,78.990844 54.723223,75.563279 138.8144,65.228467 439,28.376733 554.225,14.231348 648.725,2.3483352 649,1.9700383 c 0.275,-0.3782969 3.7625,-1.00356161 7.75,-1.38947722 L 664,-0.12110367 663.999,74.689448 663.998,149.5 l -4.74891,0.16442 c -2.6119,0.0904 -56.62892,6.5488 -120.03781,14.35195 l -115.28891,14.18754 -8.65313,-3.71735 c -4.75923,-2.04454 -12.6613,-5.00559 -17.56016,-6.58012 -8.06295,-2.59149 -12.83311,-3.84687 -26.69961,-7.02667 -8.38395,-1.92257 -28.46439,-3.86236 -40.07287,-3.87108 -43.05091,-0.0324 -96.45946,18.7565 -129.56362,45.57981 l -4.1272,3.34415 -94.3728,11.50182 C 50.967761,223.76048 6.8125,229.33811 4.75,229.82922 L 1,230.72214 Z"
       id="path26"
       inkscape:connector-curvature="0" />
    <path
       style="fill:#dc8628"
       d="M 0,666 C 0,601.31665 0.19849271,591 1.4430019,591 2.236653,591 54.324153,584.6847 117.193,576.96601 c 62.86885,-7.7187 115.657,-14.08455 117.307,-14.14634 1.65,-0.0618 6.15,1.46315 10,3.38876 15.112,7.55841 33.80199,13.65464 50,16.30881 18.18138,2.97916 65.17119,1.3962 87.58983,-2.95066 12.95998,-2.51287 26.80697,-7.44199 42.41017,-15.09677 16.21797,-7.95637 27.49491,-15.04582 39.89502,-25.0807 4.34226,-3.51401 8.61726,-6.38958 9.5,-6.39016 C 474.77776,532.99838 517.575,527.82385 569,521.5 620.425,515.17615 662.8375,510.00162 663.25,510.00105 663.6625,510.00047 664,543.75 664,585 c 0,69.3776 -0.12513,75 -1.66913,75 C 660.51243,660 20.621195,738.50039 10,740.02645 6.425,740.54012 2.7125,740.9693 1.75,740.98019 0.09871281,740.99888 0,736.76945 0,666 Z M 0,496 c 0,-47.55375 0.35337289,-75 0.96563152,-75 0.53109738,0 26.61467048,-3.15 57.96349648,-7 31.348825,-3.85 58.153412,-7 59.565752,-7 1.41234,0 2.73952,0.5625 2.9493,1.25 0.20978,0.6875 1.37509,5.525 2.58959,10.75 6.8577,29.50303 18.91781,55.20438 37.28895,79.46663 7.93309,10.477 26.87506,29.87135 37.92728,38.83305 8.4841,6.87934 10.06259,8.70032 7.54177,8.70032 -0.66453,0 -46.99235,5.625 -102.95072,12.5 C 47.882692,565.375 1.6263978,571 1.0492889,571 0.32623071,571 0,547.68201 0,496 Z m 313.5,18.49136 C 281.97231,509.44949 254.52772,495.79401 231.11611,473.5 c -12.47671,-11.88111 -20.18853,-22.38914 -27.1542,-37 -8.00652,-16.79408 -13.91378,-35.64814 -11.92131,-38.04892 1.14943,-1.38498 24.86737,-3.9571 25.95275,-2.81448 0.45108,0.47487 1.80738,4.2384 3.01401,8.3634 5.58337,19.08739 14.32647,33.64667 28.85704,48.05362 11.11713,11.02255 24.09297,19.95567 37.57585,25.8688 14.98825,6.57333 22.43854,8.07823 39.96971,8.07356 39.83463,-0.0106 63.76572,-9.72984 89.31912,-36.27551 C 437.09001,428.5689 444.80676,410.15835 446.79058,378 L 447.5,366.5 456,365.28917 c 4.675,-0.66596 10.975,-1.34096 14,-1.5 l 5.5,-0.28917 0.29606,7.97208 c 0.30669,8.25808 -1.85008,25.78556 -4.36456,35.46964 -6.87139,26.464 -19.05518,47.89225 -37.85323,66.57443 -19.27132,19.15254 -43.68742,32.47378 -69.72026,38.03884 -21.68315,4.63523 -34.91141,5.40657 -50.35801,2.93637 z M 496,508.97853 c 0,-0.5618 2.19799,-3.8243 4.88442,-7.25 10.33946,-13.18471 23.71593,-36.80567 29.71604,-52.47435 10.46621,-27.33142 14.31666,-47.84228 14.36783,-76.53556 0.0237,-13.29583 0.34704,-17.89446 1.28171,-18.2296 0.6875,-0.24652 25.55,-3.36891 55.25,-6.93866 29.7,-3.56974 55.9125,-6.7565 58.25,-7.08167 l 4.25,-0.59124 v 74.90596 74.90596 l -17.25,2.09194 c -9.4875,1.15056 -46.64906,5.72046 -82.58124,10.15531 C 528.23658,506.37148 498.19908,510 497.41876,510 496.63844,510 496,509.54034 496,508.97853 Z"
       id="path24"
       inkscape:connector-curvature="0" />
    <path
       style="fill:#de6f26"
       d="m 0,496 c 0,-66.49897 0.36583877,-79.00887 2.1666667,-74.08941 0.1845782,0.50423 25.3241823,-2.16734 56.3333333,-5.9865 30.8,-3.7934 57.18471,-6.90317 58.63269,-6.91059 2.4952,-0.0128 2.74926,0.46958 4.86481,9.2365 7.96157,32.99316 21.28721,60.47382 41.33853,85.25 6.64508,8.21091 27.25563,28.84974 36.16397,36.21358 3.52505,2.9139 4.55752,4.27536 3.5,4.61529 -0.825,0.2652 -46.275,5.93972 -101,12.61006 C 47.275,563.60926 2.35,569.50178 2.1666667,570.0334 0.37375781,575.23246 0,562.46143 0,496 Z m 312.5,16.49136 c -18.08615,-2.89232 -30.06319,-6.89849 -45.5,-15.21917 -20.22063,-10.89923 -38.03466,-25.63093 -49.27868,-40.75208 -9.30472,-12.51314 -18.81409,-32.70059 -22.73738,-48.26919 -1.07428,-4.263 -1.96014,-8.0154 -1.96859,-8.33866 -0.0264,-1.01237 23.07825,-3.22481 23.91292,-2.28984 0.43088,0.48267 2.02066,4.92037 3.53283,9.86155 5.1353,16.78013 12.88284,29.71165 25.97066,43.34798 15.12018,15.75386 33.25707,27.17804 53.56824,33.74187 7.27552,2.35119 10.65438,2.81225 23.45506,3.20053 31.5552,0.95718 56.41564,-5.73451 76.04494,-20.46902 10.5893,-7.94874 27.14661,-25.17029 33.3805,-34.71965 9.18964,-14.07712 14.37059,-31.66745 15.70917,-53.33568 0.38224,-6.1875 0.96844,-11.26426 1.30266,-11.28168 0.33422,-0.0174 5.33267,-0.67817 11.10767,-1.46832 5.775,-0.79015 11.0625,-1.45089 11.75,-1.46832 2.98435,-0.0756 0.51868,28.42949 -3.88972,44.96832 -10.37949,38.94036 -37.78919,71.83216 -74.14147,88.97017 -15.78352,7.44103 -24.54363,10.04237 -45.71881,13.57633 -10.24674,1.7101 -25.60677,1.68689 -36.5,-0.0551 z M 502.86755,501.75 c 17.98116,-22.92911 33.15288,-55.84037 39.76027,-86.25 3.05916,-14.07939 4.30946,-26.36843 4.34047,-42.6621 L 547,356.1758 l 3.75,-0.58267 c 2.0625,-0.32046 15.225,-1.95421 29.25,-3.63056 50.38201,-6.02192 80.66153,-9.89546 82.31602,-10.53035 C 663.88534,340.83002 664,345.83932 664,415 c 0,65.53158 -0.17535,74.14669 -1.49884,73.63882 -0.82436,-0.31634 -8.58686,0.32495 -17.25,1.42507 C 618.10126,493.51164 499.88384,508 498.90189,508 c -0.5146,0 1.26995,-2.8125 3.96566,-6.25 z"
       id="path22"
       inkscape:connector-curvature="0" />
  </g>
</svg>
